<svg width="18" height="18" viewBox="0 0 18 18" fill="none" xmlns="http://www.w3.org/2000/svg">
<path d="M5.75 12C5.88807 12 6 12.1119 6 12.25C6 12.3881 5.88807 12.5 5.75 12.5C5.61193 12.5 5.5 12.3881 5.5 12.25C5.5 12.1119 5.61193 12 5.75 12Z" fill="#1C274C" stroke="white"/>
<path d="M8.75 12C8.88808 12 9 12.1119 9 12.25C9 12.3881 8.88808 12.5 8.75 12.5C8.61192 12.5 8.5 12.3881 8.5 12.25C8.5 12.1119 8.61192 12 8.75 12Z" fill="#1C274C" stroke="white"/>
<path d="M12.25 12C12.3881 12 12.5 12.1119 12.5 12.25C12.5 12.3881 12.3881 12.5 12.25 12.5C12.1119 12.5 12 12.3881 12 12.25C12 12.1119 12.1119 12 12.25 12Z" fill="#1C274C" stroke="white"/>
<path d="M8.2 17H5.8C3.53726 17 2.40589 17 1.70294 16.3044C1 15.6087 1 14.4892 1 12.25C1 10.0109 1 8.89128 1.70294 8.19564C2.40589 7.5 3.53726 7.5 5.8 7.5H12.2C14.4627 7.5 15.5941 7.5 16.297 8.19564C17 8.89128 17 10.0109 17 12.25C17 14.4892 17 15.6087 16.297 16.3044C15.5941 17 14.4627 17 12.2 17H11.4" stroke="white" stroke-linecap="round"/>
<path d="M4 7.5V5.875C4 5.59817 4.02284 5.32673 4.06673 5.0625M13.5 4.65625C12.9642 2.55363 11.0748 1 8.82601 1C7.39671 1 6.11253 1.62766 5.22885 2.625" stroke="white" stroke-linecap="round"/>
</svg>
